<svg xmlns="http://www.w3.org/2000/svg" width="24" height="24" viewBox="0 0 24 24">
<symbol id="menu" viewBox="0 0 24 24"><path d="M24 6h-24v-4h24v4zm0 4h-24v4h24v-4zm0 8h-24v4h24v-4z"/></symbol>
<symbol id="sound" viewBox="0 0 477.867 477.867"><title>sound</title><path d="M460.8,238.93H358.4c-7.828,0-14.652,5.326-16.555,12.919l-28.45,113.783L272.947,15.1 c-1.089-9.363-9.561-16.07-18.924-14.981c-7.323,0.852-13.271,6.308-14.749,13.53L185.19,284.157l-32.188-117.982 c-2.465-9.098-11.839-14.474-20.936-12.009c-5.181,1.404-9.399,5.163-11.388,10.148L90.846,238.93H17.067 C7.641,238.93,0,246.571,0,255.996s7.641,17.067,17.067,17.067H102.4c6.984,0.003,13.264-4.25,15.855-10.735l15.206-38.042 l37.803,138.598c2.025,7.427,8.771,12.58,16.469,12.578h0.58c7.892-0.268,14.57-5.915,16.145-13.653l47.002-235.093 l38.792,336.026c0.939,8.196,7.606,14.547,15.838,15.087l1.109,0.034c7.827-0.01,14.644-5.342,16.538-12.937l47.992-191.863H460.8 c9.426,0,17.067-7.641,17.067-17.067S470.226,238.93,460.8,238.93z"/></symbol><symbol id="download" viewBox="0 0 512 512"><title>download</title><path d="m239.029 384.97a24 24 0 0 0 33.942 0l90.509-90.509a24 24 0 0 0 0-33.941 24 24 0 0 0 -33.941 0l-49.539 49.539v-262.059a24 24 0 0 0 -48 0v262.059l-49.539-49.539a24 24 0 0 0 -33.941 0 24 24 0 0 0 0 33.941z"/><path d="m464 232a24 24 0 0 0 -24 24v184h-368v-184a24 24 0 0 0 -48 0v192a40 40 0 0 0 40 40h384a40 40 0 0 0 40-40v-192a24 24 0 0 0 -24-24z"/></symbol><symbol id="link" viewBox="0 0 511.997 511.997"><title>link</title><g transform="translate(1 1)"> <g> <g> <path d="M211.26,389.24l-60.331,60.331c-25.012,25.012-65.517,25.012-90.508,0.005c-24.996-24.996-24.996-65.505-0.005-90.496 l120.683-120.683c24.991-24.992,65.5-24.992,90.491,0c8.331,8.331,21.839,8.331,30.17,0c8.331-8.331,8.331-21.839,0-30.17 c-41.654-41.654-109.177-41.654-150.831,0L30.247,328.909c-41.654,41.654-41.654,109.177,0,150.831 c41.649,41.676,109.177,41.676,150.853,0l60.331-60.331c8.331-8.331,8.331-21.839,0-30.17S219.591,380.909,211.26,389.24z"/> <path d="M479.751,30.24c-41.654-41.654-109.199-41.654-150.853,0l-72.384,72.384c-8.331,8.331-8.331,21.839,0,30.17 c8.331,8.331,21.839,8.331,30.17,0l72.384-72.384c24.991-24.992,65.521-24.992,90.513,0c24.991,24.991,24.991,65.5,0,90.491 L316.845,283.638c-24.992,24.992-65.5,24.992-90.491,0c-8.331-8.331-21.839-8.331-30.17,0s-8.331,21.839,0,30.17 c41.654,41.654,109.177,41.654,150.831,0l132.736-132.736C521.405,139.418,521.405,71.894,479.751,30.24z"/> </g> </g> </g></symbol><symbol id="search" viewBox="0 0 511.999 511.999"><title>search</title><path d="M508.874,478.708L360.142,329.976c28.21-34.827,45.191-79.103,45.191-127.309c0-111.75-90.917-202.667-202.667-202.667 S0,90.917,0,202.667s90.917,202.667,202.667,202.667c48.206,0,92.482-16.982,127.309-45.191l148.732,148.732 c4.167,4.165,10.919,4.165,15.086,0l15.081-15.082C513.04,489.627,513.04,482.873,508.874,478.708z M202.667,362.667 c-88.229,0-160-71.771-160-160s71.771-160,160-160s160,71.771,160,160S290.896,362.667,202.667,362.667z"/></symbol>
</svg>